<?xml version="1.0" encoding="UTF-8"?>
<svg xmlns="http://www.w3.org/2000/svg" version="1.1" viewBox="0 0 638.6 764.9">
  <defs>
    <style>
      .cls-1 {
        fill: #fff;
      }

      .cls-2 {
        fill: red;
      }

      .cls-3 {
        fill: none;
        stroke: #666;
        stroke-miterlimit: 10;
        stroke-width: 3px;
      }

      .cls-4, .cls-5 {
        display: none;
      }

      .cls-5 {
        fill: #666;
      }
    </style>
  </defs>
  <!-- Generator: Adobe Illustrator 28.7.8, SVG Export Plug-In . SVG Version: 1.2.0 Build 200)  -->
  <g>
    <g id="Layer_1">
      <g id="Original" class="cls-4">
        <rect x="96.4" y="572.9" width="222.9" height="96"/>
        <rect x="96.4" y="485.9" width="96" height="48"/>
        <path d="M524.6,182.8c11.6-27.5,17.6-56.7,17.6-86.8h-96c0,70.1-56.8,126.9-126.9,126.9s-126.9-56.8-126.9-126.9h-96c0,30,5.9,59.2,17.6,86.8,11.2,26.6,27.3,50.4,47.7,70.8s12.7,12,19.5,17.4c-6.8,5.4-13.3,11.2-19.5,17.4-20.4,20.4-36.5,44.3-47.7,70.8-11.7,27.6-17.6,56.8-17.6,86.8h96c0-70.1,56.8-126.9,126.9-126.9s126.9,56.8,126.9,126.9-56.8,126.9-126.9,126.9v96c30,0,59.2-5.9,86.8-17.6,26.6-11.2,50.4-27.3,70.8-47.7s36.5-44.3,47.7-70.8c11.6-27.5,17.6-56.7,17.6-86.8s-5.9-59.2-17.6-86.8c-11.2-26.6-27.3-50.4-47.7-70.8-6.2-6.2-12.7-12-19.5-17.4,6.8-5.4,13.3-11.2,19.5-17.4,20.4-20.4,36.5-44.3,47.7-70.8Z"/>
      </g>
      <g id="Merged__x28_B_x29_" class="cls-4">
        <rect x="96.4" y="485.9" width="96" height="48"/>
        <path d="M476.9,288.4c-6.2-6.2-12.7-12-19.5-17.4,6.8-5.4,13.3-11.2,19.5-17.4,20.4-20.4,36.5-44.3,47.7-70.8,11.6-27.5,17.6-56.7,17.6-86.8h-96c0,70.1-56.8,126.9-126.9,126.9s-126.9-56.8-126.9-126.9h-96c0,30,5.9,59.2,17.6,86.8,11.2,26.6,27.3,50.4,47.7,70.8s12.7,12,19.5,17.4c-6.8,5.4-13.3,11.2-19.5,17.4-20.4,20.4-36.5,44.3-47.7,70.8-11.7,27.6-17.6,56.8-17.6,86.8h96c0-70.1,56.8-126.9,126.9-126.9s126.9,56.8,126.9,126.9-56.8,126.9-126.9,126.9H96.4v96h222.9c30,0,59.2-5.9,86.8-17.6,26.6-11.2,50.4-27.3,70.8-47.7s36.5-44.3,47.7-70.8c11.6-27.5,17.6-56.7,17.6-86.8s-5.9-59.2-17.6-86.8c-11.2-26.5-27.3-50.4-47.7-70.8Z"/>
      </g>
      <g id="Merged__x28_W_x29_" class="cls-4">
        <rect class="cls-1" x="96.4" y="485.9" width="96" height="48"/>
        <path class="cls-1" d="M476.9,288.4c-6.2-6.2-12.7-12-19.5-17.4,6.8-5.4,13.3-11.2,19.5-17.4,20.4-20.4,36.5-44.3,47.7-70.8,11.6-27.5,17.6-56.7,17.6-86.8h-96c0,70.1-56.8,126.9-126.9,126.9s-126.9-56.8-126.9-126.9h-96c0,30,5.9,59.2,17.6,86.8,11.2,26.6,27.3,50.4,47.7,70.8s12.7,12,19.5,17.4c-6.8,5.4-13.3,11.2-19.5,17.4-20.4,20.4-36.5,44.3-47.7,70.8-11.7,27.6-17.6,56.8-17.6,86.8h96c0-70.1,56.8-126.9,126.9-126.9s126.9,56.8,126.9,126.9-56.8,126.9-126.9,126.9H96.4v96h222.9c30,0,59.2-5.9,86.8-17.6,26.6-11.2,50.4-27.3,70.8-47.7s36.5-44.3,47.7-70.8c11.6-27.5,17.6-56.7,17.6-86.8s-5.9-59.2-17.6-86.8c-11.2-26.5-27.3-50.4-47.7-70.8Z"/>
      </g>
      <g id="Outline">
        <rect class="cls-3" x="100.8" y="95" width="437" height="575" rx="15.5" ry="15.5"/>
        <rect class="cls-3" x="153.5" y="459.4" width="71.4" height="35.7"/>
        <path class="cls-3" d="M436.5,312.5c-4.6-4.6-9.4-8.9-14.5-12.9,5.1-4,9.9-8.3,14.5-12.9,15.2-15.2,27.1-33,35.5-52.7,8.6-20.5,13.1-42.2,13.1-64.6h-71.4c0,52.1-42.2,94.4-94.4,94.4s-94.4-42.2-94.4-94.4h-71.4c0,22.3,4.4,44,13.1,64.6,8.3,19.8,20.3,37.5,35.5,52.7,4.6,4.6,9.4,8.9,14.5,12.9-5.1,4-9.9,8.3-14.5,12.9-15.2,15.2-27.1,33-35.5,52.7-8.7,20.5-13.1,42.2-13.1,64.6h71.4c0-52.1,42.2-94.4,94.4-94.4s94.4,42.2,94.4,94.4-42.2,94.4-94.4,94.4h-165.8v71.4h165.8c22.3,0,44-4.4,64.6-13.1,19.8-8.3,37.5-20.3,52.7-35.5,15.2-15.2,27.1-33,35.5-52.7,8.6-20.5,13.1-42.2,13.1-64.6s-4.4-44-13.1-64.6c-8.3-19.7-20.3-37.5-35.5-52.7Z"/>
      </g>
      <path class="cls-5" d="M522.3,95H116.3c-8.6,0-15.5,6.9-15.5,15.5v544c0,8.6,6.9,15.5,15.5,15.5h406c8.6,0,15.5-6.9,15.5-15.5V110.5c0-8.6-6.9-15.5-15.5-15.5ZM153.5,459.4h71.4v35.7h-71.4v-35.7ZM436.5,312.5c15.2,15.2,27.1,33,35.5,52.7,8.7,20.5,13.1,42.2,13.1,64.6s-4.5,44.1-13.1,64.6c-8.3,19.7-20.3,37.5-35.5,52.7-15.2,15.2-32.9,27.1-52.7,35.5-20.5,8.7-42.2,13.1-64.6,13.1h-165.8v-71.4h165.8c52.1,0,94.4-42.2,94.4-94.4s-42.2-94.4-94.4-94.4-94.4,42.2-94.4,94.4h-71.4c0-22.3,4.4-44,13.1-64.6,8.3-19.7,20.3-37.5,35.5-52.7s9.4-8.9,14.5-12.9c-5.1-4-9.9-8.3-14.5-12.9-15.2-15.2-27.1-32.9-35.5-52.7-8.7-20.5-13.1-42.2-13.1-64.6h71.4c0,52.1,42.2,94.4,94.4,94.4s94.4-42.2,94.4-94.4h71.4c0,22.4-4.5,44.1-13.1,64.6-8.3,19.7-20.3,37.5-35.5,52.7-4.6,4.6-9.4,8.9-14.5,12.9,5.1,4,9.9,8.3,14.5,12.9Z"/>
      <g id="Guide" class="cls-4">
        <rect class="cls-2" x="96.4" y="668.9" width="96.4" height="96"/>
        <rect class="cls-2" y="96" width="96.4" height="96"/>
        <rect class="cls-2" x="445.8" width="96.4" height="96"/>
        <rect class="cls-2" x="542.2" y="400.4" width="96.4" height="96"/>
      </g>
    </g>
  </g>
</svg>