<?xml version="1.0" standalone="no"?>
<!DOCTYPE svg PUBLIC "-//W3C//DTD SVG 1.1//EN" "http://www.w3.org/Graphics/SVG/1.1/DTD/svg11.dtd">
<svg xmlns="http://www.w3.org/2000/svg" xmlns:xlink="http://www.w3.org/1999/xlink" version="1.1" id="Layer_1" x="0px" y="0px" viewBox="0 0 638.6 764.9" style="enable-background:new 0 0 638.6 764.9;" xml:space="preserve" width="638.5999755859375" height="764.9000244140625">
<style type="text/css">
	.st0{display:none;}
	.st1{display:inline;}
	.st2{fill:#FFFFFF;}
	.st3{display:inline;fill:none;stroke:#FFFFFF;stroke-width:6;stroke-miterlimit:10;}
	.st4{display:inline;fill:#FF0000;}
</style>
<g id="Original" class="st0">
	<rect x="96.4" y="572.9" class="st1" width="222.9" height="96"/>
	<rect x="96.4" y="485.9" class="st1" width="96" height="48"/>
	<path class="st1" d="M524.6,182.8c11.6-27.5,17.6-56.7,17.6-86.8l0,0h-96l0,0c0,70.1-56.8,126.9-126.9,126.9   c-70.1,0-126.9-56.8-126.9-126.9l0,0h-96l0,0c0,30,5.9,59.2,17.6,86.8c11.2,26.6,27.3,50.4,47.7,70.8c6.2,6.2,12.7,12,19.5,17.4   c-6.8,5.4-13.3,11.2-19.5,17.4c-20.4,20.4-36.5,44.3-47.7,70.8C102.3,386.8,96.4,416,96.4,446h96c0-70.1,56.8-126.9,126.9-126.9   c70.1,0,126.9,56.8,126.9,126.9s-56.8,126.9-126.9,126.9v96c30,0,59.2-5.9,86.8-17.6c26.6-11.2,50.4-27.3,70.8-47.7   c20.4-20.4,36.5-44.3,47.7-70.8c11.6-27.5,17.6-56.7,17.6-86.8s-5.9-59.2-17.6-86.8c-11.2-26.6-27.3-50.4-47.7-70.8   c-6.2-6.2-12.7-12-19.5-17.4c6.8-5.4,13.3-11.2,19.5-17.4C497.3,233.2,513.4,209.3,524.6,182.8z"/>
</g>
<g id="Merged__x28_B_x29_" class="st0">
	<rect x="96.4" y="485.9" class="st1" width="96" height="48"/>
	<path class="st1" d="M476.9,288.4c-6.2-6.2-12.7-12-19.5-17.4c6.8-5.4,13.3-11.2,19.5-17.4c20.4-20.4,36.5-44.3,47.7-70.8   c11.6-27.5,17.6-56.7,17.6-86.8h-96c0,70.1-56.8,126.9-126.9,126.9c-70.1,0-126.9-56.8-126.9-126.9h-96c0,30,5.9,59.2,17.6,86.8   c11.2,26.6,27.3,50.4,47.7,70.8c6.2,6.2,12.7,12,19.5,17.4c-6.8,5.4-13.3,11.2-19.5,17.4c-20.4,20.4-36.5,44.3-47.7,70.8   C102.3,386.8,96.4,416,96.4,446h96c0-70.1,56.8-126.9,126.9-126.9c70.1,0,126.9,56.8,126.9,126.9s-56.8,126.9-126.9,126.9H96.4v96   h222.9c30,0,59.2-5.9,86.8-17.6c26.6-11.2,50.4-27.3,70.8-47.7c20.4-20.4,36.5-44.3,47.7-70.8c11.6-27.5,17.6-56.7,17.6-86.8   s-5.9-59.2-17.6-86.8C513.4,332.7,497.3,308.8,476.9,288.4z"/>
</g>
<g id="Merged__x28_W_x29_">
	<rect x="96.4" y="485.9" class="st2" width="96" height="48"/>
	<path class="st2" d="M476.9,288.4c-6.2-6.2-12.7-12-19.5-17.4c6.8-5.4,13.3-11.2,19.5-17.4c20.4-20.4,36.5-44.3,47.7-70.8   c11.6-27.5,17.6-56.7,17.6-86.8h-96c0,70.1-56.8,126.9-126.9,126.9c-70.1,0-126.9-56.8-126.9-126.9h-96c0,30,5.9,59.2,17.6,86.8   c11.2,26.6,27.3,50.4,47.7,70.8c6.2,6.2,12.7,12,19.5,17.4c-6.8,5.4-13.3,11.2-19.5,17.4c-20.4,20.4-36.5,44.3-47.7,70.8   C102.3,386.8,96.4,416,96.4,446h96c0-70.1,56.8-126.9,126.9-126.9c70.1,0,126.9,56.8,126.9,126.9s-56.8,126.9-126.9,126.9H96.4v96   h222.9c30,0,59.2-5.9,86.8-17.6c26.6-11.2,50.4-27.3,70.8-47.7c20.4-20.4,36.5-44.3,47.7-70.8c11.6-27.5,17.6-56.7,17.6-86.8   s-5.9-59.2-17.6-86.8C513.4,332.7,497.3,308.8,476.9,288.4z"/>
</g>
<g id="Outline" class="st0">
	<rect x="96.4" y="485.9" class="st3" width="96" height="48"/>
	<path class="st3" d="M476.9,288.4c-6.2-6.2-12.7-12-19.5-17.4c6.8-5.4,13.3-11.2,19.5-17.4c20.4-20.4,36.5-44.3,47.7-70.8   c11.6-27.5,17.6-56.7,17.6-86.8h-96c0,70.1-56.8,126.9-126.9,126.9c-70.1,0-126.9-56.8-126.9-126.9h-96c0,30,5.9,59.2,17.6,86.8   c11.2,26.6,27.3,50.4,47.7,70.8c6.2,6.2,12.7,12,19.5,17.4c-6.8,5.4-13.3,11.2-19.5,17.4c-20.4,20.4-36.5,44.3-47.7,70.8   C102.3,386.8,96.4,416,96.4,446h96c0-70.1,56.8-126.9,126.9-126.9c70.1,0,126.9,56.8,126.9,126.9s-56.8,126.9-126.9,126.9H96.4v96   h222.9c30,0,59.2-5.9,86.8-17.6c26.6-11.2,50.4-27.3,70.8-47.7c20.4-20.4,36.5-44.3,47.7-70.8c11.6-27.5,17.6-56.7,17.6-86.8   s-5.9-59.2-17.6-86.8C513.4,332.7,497.3,308.8,476.9,288.4z"/>
</g>
<g id="Guide" class="st0">
	<rect x="96.4" y="668.9" class="st4" width="96.4" height="96"/>
	<rect y="96" class="st4" width="96.4" height="96"/>
	<rect x="445.8" class="st4" width="96.4" height="96"/>
	<rect x="542.2" y="400.4" class="st4" width="96.4" height="96"/>
</g>
</svg>