<svg xmlns="http://www.w3.org/2000/svg" viewBox="0 0 765 765">
  <style>
    .mark { fill: #ffffff; }
    @media (prefers-color-scheme: light) {
      .mark { fill: #0a0f12; }
    }
  </style>
  <g transform="translate(63, 0)">
    <rect x="96.4" y="485.9" class="mark" width="96" height="48"/>
    <path class="mark" d="M476.9,288.4c-6.2-6.2-12.7-12-19.5-17.4c6.8-5.4,13.3-11.2,19.5-17.4c20.4-20.4,36.5-44.3,47.7-70.8c11.6-27.5,17.6-56.7,17.6-86.8h-96c0,70.1-56.8,126.9-126.9,126.9c-70.1,0-126.9-56.8-126.9-126.9h-96c0,30,5.9,59.2,17.6,86.8c11.2,26.6,27.3,50.4,47.7,70.8c6.2,6.2,12.7,12,19.5,17.4c-6.8,5.4-13.3,11.2-19.5,17.4c-20.4,20.4-36.5,44.3-47.7,70.8C102.3,386.8,96.4,416,96.4,446h96c0-70.1,56.8-126.9,126.9-126.9c70.1,0,126.9,56.8,126.9,126.9s-56.8,126.9-126.9,126.9H96.4v96h222.9c30,0,59.2-5.9,86.8-17.6c26.6-11.2,50.4-27.3,70.8-47.7c20.4-20.4,36.5-44.3,47.7-70.8c11.6-27.5,17.6-56.7,17.6-86.8s-5.9-59.2-17.6-86.8C513.4,332.7,497.3,308.8,476.9,288.4z"/>
  </g>
</svg>
